HIERARCHY
ROOT Hips
{
	OFFSET 0.000000 83.214638 0.000000
	CHANNELS 6 Xposition Yposition Zposition Xrotation Yrotation Zrotation
	JOINT Pelvis
	{
		OFFSET 0.000000 0.000000 0.000000
		CHANNELS 3 Xrotation Yrotation Zrotation
		JOINT LeftUpLeg
		{
			OFFSET 8.479700 -4.795502 -0.379100
			CHANNELS 3 Xrotation Yrotation Zrotation
			JOINT LeftLeg
			{
				OFFSET 0.024144 -32.555107 0.112900
				CHANNELS 3 Xrotation Yrotation Zrotation
				JOINT LeftFoot
				{
					OFFSET -0.024144 -32.638630 -3.012600
					CHANNELS 3 Xrotation Yrotation Zrotation
					JOINT LeftToeBase
					{
						OFFSET 0.970200 -13.225400 11.864200
						CHANNELS 3 Xrotation Yrotation Zrotation
						End Site
						{
							OFFSET 0.000000 12.319262 0.000000
						}
					}
					JOINT LFootTongue
					{
						OFFSET 1.142400 -1.059800 6.665200
						CHANNELS 3 Xrotation Yrotation Zrotation
						End Site
						{
							OFFSET 0.000000 12.319262 0.000000
						}
					}
				}
				JOINT LeftPantLeg
				{
					OFFSET 0.918482 -16.533964 -2.284700
					CHANNELS 3 Xrotation Yrotation Zrotation
					End Site
					{
						OFFSET 0.350399 24.744368 0.000000
					}
				}
			}
		}
		JOINT RightUpLeg
		{
			OFFSET -8.479700 -4.795502 -0.379100
			CHANNELS 3 Xrotation Yrotation Zrotation
			JOINT RightLeg
			{
				OFFSET -0.023144 -32.555092 0.112900
				CHANNELS 3 Xrotation Yrotation Zrotation
				JOINT RightFoot
				{
					OFFSET 0.023144 -32.638641 -3.012700
					CHANNELS 3 Xrotation Yrotation Zrotation
					JOINT RightToeBase
					{
						OFFSET -0.970200 -13.225400 11.864200
						CHANNELS 3 Xrotation Yrotation Zrotation
						End Site
						{
							OFFSET 0.000000 12.319244 0.000000
						}
					}
					JOINT RFootTongue
					{
						OFFSET -1.142200 -1.059800 6.665200
						CHANNELS 3 Xrotation Yrotation Zrotation
						End Site
						{
							OFFSET 0.000000 12.319243 0.000000
						}
					}
				}
				JOINT RightPantLeg
				{
					OFFSET -0.919482 -16.533978 -2.284800
					CHANNELS 3 Xrotation Yrotation Zrotation
					End Site
					{
						OFFSET -0.350400 24.744419 0.000000
					}
				}
			}
		}
	}
	JOINT Spine
	{
		OFFSET 0.000000 7.722000 1.166200
		CHANNELS 3 Xrotation Yrotation Zrotation
		JOINT Spine1
		{
			OFFSET 0.000000 12.024101 0.248800
			CHANNELS 3 Xrotation Yrotation Zrotation
			JOINT Spine2
			{
				OFFSET 0.000000 11.502998 -0.491200
				CHANNELS 3 Xrotation Yrotation Zrotation
				JOINT Neck
				{
					OFFSET 0.000000 18.430702 -3.123100
					CHANNELS 3 Xrotation Yrotation Zrotation
					JOINT Head
					{
						OFFSET 0.000000 9.051102 1.034000
						CHANNELS 3 Xrotation Yrotation Zrotation
						JOINT HairB
						{
							OFFSET 0.208400 24.786102 24.822300
							CHANNELS 3 Xrotation Yrotation Zrotation
							End Site
							{
								OFFSET 0.000000 32.263779 0.000000
							}
						}
						JOINT HairA
						{
							OFFSET -7.081100 24.428299 23.196600
							CHANNELS 3 Xrotation Yrotation Zrotation
							End Site
							{
								OFFSET 0.000000 32.263779 0.000000
							}
						}
						JOINT Hat
						{
							OFFSET 16.728800 15.048294 -15.439601
							CHANNELS 3 Xrotation Yrotation Zrotation
							End Site
							{
								OFFSET 0.000000 32.263779 0.000000
							}
						}
					}
				}
				JOINT LeftShoulder
				{
					OFFSET 6.197800 13.665199 -4.064700
					CHANNELS 3 Xrotation Yrotation Zrotation
					JOINT LeftArm
					{
						OFFSET 7.778100 -0.187103 -1.709300
						CHANNELS 3 Xrotation Yrotation Zrotation
						JOINT LeftForeArm
						{
							OFFSET 22.049376 0.000000 0.000000
							CHANNELS 3 Xrotation Yrotation Zrotation
							JOINT LeftHand
							{
								OFFSET 23.009392 0.000000 0.000000
								CHANNELS 3 Xrotation Yrotation Zrotation
								JOINT LeftHandThumb1
								{
									OFFSET 3.507191 -2.063065 3.133727
									CHANNELS 3 Xrotation Yrotation Zrotation
									JOINT LeftHandThumb2
									{
										OFFSET 3.101337 -1.790558 1.790558
										CHANNELS 3 Xrotation Yrotation Zrotation
										JOINT LeftHandThumb3
										{
											OFFSET 3.058640 -1.765907 1.765906
											CHANNELS 3 Xrotation Yrotation Zrotation
											End Site
											{
												OFFSET -0.415260 3.926476 -0.049563
											}
										}
									}
								}
								JOINT LeftHandIndex1
								{
									OFFSET 11.334419 -0.901459 3.706815
									CHANNELS 3 Xrotation Yrotation Zrotation
									JOINT LeftHandIndex2
									{
										OFFSET 3.283112 0.000000 0.000000
										CHANNELS 3 Xrotation Yrotation Zrotation
										JOINT LeftHandIndex3
										{
											OFFSET 3.323853 0.000000 0.000000
											CHANNELS 3 Xrotation Yrotation Zrotation
											End Site
											{
												OFFSET -1.135597 3.097809 0.402452
											}
										}
									}
								}
								JOINT LeftHandMiddle1
								{
									OFFSET 11.335861 0.000000 0.000000
									CHANNELS 3 Xrotation Yrotation Zrotation
									JOINT LeftHandMiddle2
									{
										OFFSET 3.410492 0.000000 0.000000
										CHANNELS 3 Xrotation Yrotation Zrotation
										JOINT LeftHandMiddle3
										{
											OFFSET 3.312172 0.000000 0.000000
											CHANNELS 3 Xrotation Yrotation Zrotation
											End Site
											{
												OFFSET -1.150200 3.080154 0.400270
											}
										}
									}
								}
								JOINT LeftHandRing1
								{
									OFFSET 11.514786 -0.013176 -3.003090
									CHANNELS 3 Xrotation Yrotation Zrotation
									JOINT LeftHandRing2
									{
										OFFSET 3.053307 0.000000 0.000000
										CHANNELS 3 Xrotation Yrotation Zrotation
										JOINT LeftHandRing3
										{
											OFFSET 3.295807 0.000000 0.000000
											CHANNELS 3 Xrotation Yrotation Zrotation
											End Site
											{
												OFFSET -1.281006 3.013344 0.375733
											}
										}
									}
								}
								JOINT LeftHandPinky1
								{
									OFFSET 10.518692 -0.960396 -5.730441
									CHANNELS 3 Xrotation Yrotation Zrotation
									JOINT LeftHandPinky2
									{
										OFFSET 2.861649 0.000000 0.000000
										CHANNELS 3 Xrotation Yrotation Zrotation
										JOINT LeftHandPinky3
										{
											OFFSET 2.863380 0.000000 0.000000
											CHANNELS 3 Xrotation Yrotation Zrotation
											End Site
											{
												OFFSET -0.843597 2.711159 0.369971
											}
										}
									}
								}
							}
							JOINT LSleeve
							{
								OFFSET 6.676277 -0.344902 -1.011730
								CHANNELS 3 Xrotation Yrotation Zrotation
								End Site
								{
									OFFSET 0.000000 14.885353 0.000000
								}
							}
						}
					}
				}
				JOINT RightShoulder
				{
					OFFSET -6.197800 13.665199 -4.064700
					CHANNELS 3 Xrotation Yrotation Zrotation
					JOINT RightArm
					{
						OFFSET -7.778100 -0.187103 -1.709300
						CHANNELS 3 Xrotation Yrotation Zrotation
						JOINT RightForeArm
						{
							OFFSET -22.049376 0.000000 0.000000
							CHANNELS 3 Xrotation Yrotation Zrotation
							JOINT RightHand
							{
								OFFSET -23.009392 0.000000 0.000000
								CHANNELS 3 Xrotation Yrotation Zrotation
								JOINT RightHandThumb1
								{
									OFFSET -3.507191 -2.063065 3.133727
									CHANNELS 3 Xrotation Yrotation Zrotation
									JOINT RightHandThumb2
									{
										OFFSET -3.101337 -1.790558 1.790558
										CHANNELS 3 Xrotation Yrotation Zrotation
										JOINT RightHandThumb3
										{
											OFFSET -3.058640 -1.765907 1.765906
											CHANNELS 3 Xrotation Yrotation Zrotation
											End Site
											{
												OFFSET 0.415260 3.926476 -0.049563
											}
										}
									}
								}
								JOINT RightHandIndex1
								{
									OFFSET -11.334419 -0.901459 3.706815
									CHANNELS 3 Xrotation Yrotation Zrotation
									JOINT RightHandIndex2
									{
										OFFSET -3.283112 0.000000 0.000000
										CHANNELS 3 Xrotation Yrotation Zrotation
										JOINT RightHandIndex3
										{
											OFFSET -3.323853 0.000000 0.000000
											CHANNELS 3 Xrotation Yrotation Zrotation
											End Site
											{
												OFFSET 1.135597 3.097809 0.402452
											}
										}
									}
								}
								JOINT RightHandMiddle1
								{
									OFFSET -11.335861 0.000000 0.000000
									CHANNELS 3 Xrotation Yrotation Zrotation
									JOINT RightHandMiddle2
									{
										OFFSET -3.410492 0.000000 0.000000
										CHANNELS 3 Xrotation Yrotation Zrotation
										JOINT RightHandMiddle3
										{
											OFFSET -3.312172 0.000000 0.000000
											CHANNELS 3 Xrotation Yrotation Zrotation
											End Site
											{
												OFFSET 1.150200 3.080154 0.400270
											}
										}
									}
								}
								JOINT RightHandRing1
								{
									OFFSET -11.514786 -0.013176 -3.003090
									CHANNELS 3 Xrotation Yrotation Zrotation
									JOINT RightHandRing2
									{
										OFFSET -3.053307 0.000000 0.000000
										CHANNELS 3 Xrotation Yrotation Zrotation
										JOINT RightHandRing3
										{
											OFFSET -3.295807 0.000000 0.000000
											CHANNELS 3 Xrotation Yrotation Zrotation
											End Site
											{
												OFFSET 1.281006 3.013344 0.375733
											}
										}
									}
								}
								JOINT RightHandPinky1
								{
									OFFSET -10.518692 -0.960396 -5.730441
									CHANNELS 3 Xrotation Yrotation Zrotation
									JOINT RightHandPinky2
									{
										OFFSET -2.861649 0.000000 0.000000
										CHANNELS 3 Xrotation Yrotation Zrotation
										JOINT RightHandPinky3
										{
											OFFSET -2.863380 0.000000 0.000000
											CHANNELS 3 Xrotation Yrotation Zrotation
											End Site
											{
												OFFSET 0.843597 2.711159 0.369971
											}
										}
									}
								}
							}
							JOINT RSleeve
							{
								OFFSET -6.676277 -0.344902 -1.011730
								CHANNELS 3 Xrotation Yrotation Zrotation
								End Site
								{
									OFFSET 0.000000 14.885353 0.000000
								}
							}
						}
					}
				}
				JOINT Backpack
				{
					OFFSET 0.000000 -2.471497 36.677502
					CHANNELS 3 Xrotation Yrotation Zrotation
					End Site
					{
						OFFSET 0.000000 20.427315 0.000000
					}
				}
				JOINT Hood
				{
					OFFSET 0.000000 18.754097 -10.431000
					CHANNELS 3 Xrotation Yrotation Zrotation
					JOINT Hood1
					{
						OFFSET 0.000000 -5.011002 -7.685901
						CHANNELS 3 Xrotation Yrotation Zrotation
						End Site
						{
							OFFSET 0.000000 9.175140 0.000000
						}
					}
				}
				JOINT LHoodieString
				{
					OFFSET 5.250500 16.397697 3.089900
					CHANNELS 3 Xrotation Yrotation Zrotation
					JOINT LHoodieString1
					{
						OFFSET 0.257700 -6.364304 3.694600
						CHANNELS 3 Xrotation Yrotation Zrotation
						JOINT LHoodieString2
						{
							OFFSET 0.000000 -9.643799 2.679100
							CHANNELS 3 Xrotation Yrotation Zrotation
							End Site
							{
								OFFSET 0.000000 10.009018 0.000000
							}
						}
					}
				}
				JOINT RHoodieString
				{
					OFFSET -5.250500 16.397697 3.089900
					CHANNELS 3 Xrotation Yrotation Zrotation
					JOINT RHoodieString1
					{
						OFFSET -0.257700 -6.364304 3.694600
						CHANNELS 3 Xrotation Yrotation Zrotation
						JOINT RHoodieString2
						{
							OFFSET 0.000000 -9.643799 2.679100
							CHANNELS 3 Xrotation Yrotation Zrotation
							End Site
							{
								OFFSET 0.000000 10.009018 0.000000
							}
						}
					}
				}
			}
			JOINT LBackpack_Strap
			{
				OFFSET 15.223200 -7.719803 -6.610900
				CHANNELS 3 Xrotation Yrotation Zrotation
				End Site
				{
					OFFSET 0.000000 16.040596 0.000000
				}
			}
			JOINT RBackpack_Strap
			{
				OFFSET -15.223000 -7.719803 -6.610900
				CHANNELS 3 Xrotation Yrotation Zrotation
				End Site
				{
					OFFSET 0.000000 16.040596 0.000000
				}
			}
		}
	}
	JOINT BoyFacialAnim_Joint
	{
		OFFSET 1.000000 -82.208099 -1.550900
		CHANNELS 3 Xrotation Yrotation Zrotation
		End Site
		{
			OFFSET 0.000000 30.012791 0.000000
		}
	}
}
MOTION
Frames: 4
Frame Time: 0.016667
153.384521 10.123314 -29.641701 54.325334 205.586030 230.693792 -0.000000 0.000000 -0.000002 -78.794510 10.451149 5.285941 118.259439 -3.808988 -3.318779 -5.914917 -3.363307 -6.873579 -0.000001 -0.000001 -0.000001 -0.000001 -0.000001 -0.000000 -0.000000 0.000000 -0.000000 -100.048106 -5.060952 1.693852 85.290348 2.707030 2.880021 -14.178279 0.788026 16.811174 -0.000002 -0.000003 -0.000000 -0.000002 -0.000003 -0.000000 -0.000001 0.000001 -0.000001 12.095912 2.889019 1.797397 24.200993 5.707153 2.256763 24.200982 5.707173 2.256768 56.768103 -4.709007 -18.365634 -27.541966 -9.260014 20.113295 0.000001 0.000000 0.000001 0.000001 0.000000 0.000001 0.000001 0.000000 0.000001 0.826486 4.176647 27.061192 -21.500732 -16.600696 -7.566930 0.248537 -108.744740 0.234037 -1.960207 7.066427 19.245277 -3.269889 -2.950322 2.445901 6.363647 5.687386 -6.261547 0.000000 -0.000001 -0.000000 -2.181516 1.448993 -9.293715 0.033631 0.552085 -14.681526 0.000001 -0.000001 -0.000000 -0.369299 0.913327 -21.544734 -0.502611 -1.800275 -26.483434 -0.000003 -0.000001 -0.000004 -0.931028 3.368092 -28.899172 -0.351976 -2.121508 -21.850825 0.000001 0.000000 -0.000000 0.523308 5.278439 -26.022918 -0.846855 -5.236647 -31.985431 -0.000000 0.000001 0.000003 -0.000000 0.000001 0.000001 2.759741 8.250651 -10.588906 -57.649044 -5.834119 42.145354 0.058607 119.763378 -0.066525 30.555094 10.082314 -24.848694 6.507446 5.943997 -8.205803 0.308320 -2.673168 -2.026420 0.000003 0.000001 0.000001 -3.218603 0.338196 -13.313586 0.023748 0.208833 -0.000010 -0.000002 0.000001 0.000002 -2.741313 -2.097325 -13.344328 0.039688 -0.113983 0.011387 0.000002 0.000001 0.000003 -2.221652 -6.757297 -8.023617 -0.013528 0.271982 0.000000 -0.000001 -0.000003 -0.000002 2.103471 -7.884673 4.939276 -0.291352 5.357225 14.254937 -0.000003 -0.000001 -0.000002 0.000000 -0.000001 -0.000000 0.000001 0.000000 0.000001 0.000001 0.000000 0.000001 0.000001 0.000000 0.000001 0.000001 0.000000 0.000001 0.000001 0.000000 0.000002 -0.000000 0.000000 -0.000000 0.000001 0.000000 0.000001 0.000001 0.000000 0.000002 -0.000000 0.000000 -0.000000 -0.000000 0.000002 0.000000 -0.000000 0.000002 0.000000 -0.000000 0.000000 -0.000002 
153.675079 8.864380 -30.230598 54.926694 200.238306 235.341763 0.000001 -0.000001 0.000001 -73.078707 8.856629 4.063253 118.210617 -4.016264 -3.337383 -6.952206 -4.734532 -9.544848 -0.000000 0.000000 0.000004 -0.000000 0.000000 0.000005 -0.000002 -0.000001 0.000002 -95.571408 -6.109369 1.461194 85.758817 2.809013 2.897287 -15.553107 0.460107 15.517061 -0.000001 0.000000 -0.000001 -0.000001 0.000000 -0.000001 0.000001 0.000001 0.000003 12.106344 2.968471 2.060287 24.205449 6.078917 2.810435 24.205475 6.078899 2.810421 57.480365 -3.925613 -18.447419 -25.082695 -8.467477 21.826288 0.000000 -0.000002 -0.000003 0.000000 -0.000002 -0.000003 0.000000 -0.000002 -0.000003 0.899510 3.368697 24.482581 -14.606295 -19.867043 -3.868296 0.354861 -104.424365 0.338007 -4.669648 6.592302 21.857632 -3.133896 -3.128521 2.072185 6.459745 5.436986 -6.660199 -0.000001 -0.000001 -0.000001 -2.376739 1.613024 -8.894079 0.030288 0.533002 -14.400265 -0.000000 0.000001 -0.000003 -0.361503 0.964857 -21.923715 -0.516453 -1.835408 -26.743286 -0.000001 0.000000 0.000000 -0.959565 3.242987 -28.884245 -0.358826 -2.130778 -22.188221 0.000001 0.000000 0.000001 0.422605 4.920201 -26.484286 -0.811167 -5.130997 -31.831888 -0.000000 -0.000003 0.000001 0.000001 -0.000000 -0.000004 3.074224 7.560855 -12.803214 -40.315472 -8.927975 48.040115 0.085575 116.790648 -0.090109 40.428590 7.346892 -27.686421 9.080921 6.991073 -6.854926 -0.534564 -0.975002 -1.909481 -0.000002 0.000000 -0.000001 -4.050264 -0.157097 -12.989648 0.010740 0.010868 -0.000023 -0.000001 0.000001 0.000005 -3.380171 -2.013608 -16.151137 0.066082 -0.021677 0.003127 0.000003 -0.000001 0.000003 -4.069068 -5.491787 -3.840699 0.001731 0.401746 0.000012 -0.000001 -0.000000 0.000002 0.468019 -4.535778 10.858783 -0.591285 6.307196 20.037576 0.000003 -0.000001 -0.000000 -0.000001 -0.000003 -0.000001 -0.000002 0.000000 -0.000003 -0.000002 0.000000 -0.000003 -0.000002 0.000000 -0.000003 -0.000002 0.000000 -0.000003 -0.000002 0.000000 -0.000002 0.000001 -0.000001 0.000003 -0.000002 0.000000 -0.000003 -0.000002 0.000000 -0.000002 0.000001 -0.000001 0.000003 0.000001 0.000001 -0.000000 0.000001 0.000001 -0.000000 0.000001 -0.000001 0.000001 
154.203705 8.165688 -30.783751 54.943879 194.683846 240.177674 -0.000002 0.000002 -0.000001 -68.232128 7.582036 2.922774 118.011872 -4.182783 -3.354062 -7.278737 -4.955081 -10.954782 0.000000 0.000002 0.000001 0.000000 0.000002 0.000001 0.000001 0.000001 0.000002 -91.485534 -6.492064 0.745086 85.843265 2.817769 2.898350 -16.765290 0.218673 14.280508 -0.000004 -0.000003 -0.000000 -0.000004 -0.000003 -0.000000 -0.000000 -0.000004 -0.000000 12.048565 3.007567 2.313652 24.076791 6.263978 3.298514 24.076774 6.263993 3.298506 58.211844 -3.060414 -17.835297 -23.111426 -7.490903 22.712643 0.000001 0.000000 -0.000002 0.000001 0.000000 -0.000002 0.000001 0.000000 -0.000002 1.106685 2.229516 21.865693 -8.044700 -21.912760 0.331391 0.504321 -100.515523 0.483738 -7.464043 4.378062 27.133106 -3.030156 -3.261357 1.789453 6.532174 5.246520 -6.961231 -0.000002 -0.000000 -0.000003 -2.566431 1.768169 -8.498516 0.026916 0.514262 -14.103380 -0.000004 0.000001 -0.000003 -0.349277 1.015433 -22.255710 -0.529866 -1.867089 -26.970428 0.000000 -0.000002 0.000001 -1.000489 3.115071 -28.867733 -0.363710 -2.137679 -22.483347 0.000001 0.000002 0.000002 0.306757 4.583556 -26.815840 -0.771144 -5.026543 -31.633635 0.000000 0.000002 0.000000 0.000001 0.000000 0.000001 3.006495 6.979971 -13.209522 -24.883247 -9.196738 51.059305 0.144319 108.653468 -0.132453 49.791621 0.108383 -33.736473 11.232866 7.962261 -5.436347 -0.991360 -0.153162 -1.907238 -0.000003 0.000001 0.000003 -4.856079 -0.741972 -11.696880 0.000006 -0.423357 0.042113 -0.000003 -0.000002 0.000005 -4.002447 -1.861598 -17.305963 0.077296 0.012092 0.000127 0.000001 -0.000003 0.000005 -6.095261 -4.440954 1.307395 -0.008295 0.878750 3.650592 0.000003 -0.000001 0.000004 -1.644625 -1.402746 16.800527 -0.986744 7.222198 25.836225 -0.000002 0.000000 -0.000001 -0.000001 0.000000 0.000001 -0.000003 -0.000001 0.000002 -0.000003 -0.000001 0.000002 -0.000003 -0.000001 0.000002 -0.000003 -0.000001 0.000002 -0.000003 -0.000001 0.000001 -0.000001 -0.000002 -0.000000 -0.000003 -0.000001 0.000002 -0.000003 -0.000001 0.000001 -0.000001 -0.000002 -0.000000 -0.000001 -0.000001 -0.000000 -0.000001 -0.000001 -0.000000 -0.000002 0.000002 -0.000001 
155.197601 7.659698 -31.305948 54.444220 188.632203 245.272967 0.000001 -0.000001 0.000001 -65.112658 7.063674 1.923419 117.415132 -4.228599 -3.361240 -5.832021 -3.213121 -9.960703 0.000000 -0.000002 0.000002 0.000000 -0.000002 0.000002 0.000000 0.000000 0.000004 -88.633842 -5.871044 -0.607402 85.513115 2.725437 2.882554 -17.462511 0.387085 13.477512 -0.000003 -0.000002 -0.000001 -0.000003 -0.000002 -0.000001 0.000000 -0.000002 0.000002 11.865452 2.973466 2.527350 23.705771 6.193822 3.640057 23.705761 6.193820 3.640065 58.660274 -2.363936 -16.804108 -22.201525 -6.647930 22.500067 0.000000 -0.000000 0.000001 0.000000 -0.000000 0.000001 0.000000 -0.000000 0.000001 1.311800 1.043496 19.573572 -2.184751 -21.315397 2.321622 0.553457 -99.110368 0.529027 -7.420667 0.340498 36.334810 -1.617111 -3.443772 1.781900 6.670568 5.016639 -7.429589 -0.000001 -0.000000 -0.000001 -2.740594 1.901287 -8.112369 0.023666 0.496731 -13.783386 0.000001 0.000002 -0.000007 -0.335101 1.060542 -22.530907 -0.542012 -1.893759 -27.158418 0.000000 0.000000 0.000004 -1.054353 2.979442 -28.849182 -0.366849 -2.142719 -22.727705 -0.000000 -0.000000 -0.000001 0.166336 4.266767 -27.072775 -0.732797 -4.937650 -31.470913 -0.000000 0.000001 -0.000000 0.000002 -0.000001 0.000004 2.058695 6.641521 -9.781851 -17.790266 -3.547552 48.458690 0.546506 93.753642 -0.517475 44.210906 -8.940507 -42.468969 12.926580 8.813791 -4.083793 -1.071279 -0.171206 -2.021261 -0.000002 -0.000003 0.000001 -5.540309 -1.397978 -9.917188 0.014404 -0.663872 4.501011 0.000001 0.000002 0.000004 -4.569652 -1.700298 -16.210609 0.061362 -0.036739 0.004491 -0.000003 -0.000004 -0.000004 -8.208133 -3.920798 6.976332 -0.122016 1.728494 11.591798 -0.000000 -0.000001 0.000002 -4.173472 1.073074 22.333086 -1.431509 8.024055 31.180920 -0.000001 -0.000001 0.000000 0.000002 -0.000001 0.000004 -0.000001 0.000000 0.000000 -0.000001 0.000000 0.000000 -0.000001 0.000000 0.000000 -0.000001 0.000000 0.000000 -0.000001 0.000000 0.000001 -0.000002 -0.000003 0.000002 -0.000001 0.000000 0.000000 -0.000001 0.000000 0.000001 -0.000002 -0.000003 0.000002 -0.000001 -0.000003 -0.000001 -0.000001 -0.000003 -0.000001 0.000001 -0.000001 0.000001 
